<?xml version="1.0" standalone="no"?>
<!DOCTYPE svg PUBLIC "-//W3C//DTD SVG 20010904//EN" "http://www.w3.org/TR/2001/REC-SVG-20010904/DTD/svg10.dtd">
<svg version="1.0" xmlns="http://www.w3.org/2000/svg" width="304.000000pt" height="304.000000pt" viewBox="0 0 304.000000 304.000000" preserveAspectRatio="xMidYMid meet">
<metadata>
Created by potrace 1.14, written by Peter Selinger 2001-2017
</metadata>
<g transform="translate(0.000000,304.000000) scale(0.100000,-0.100000)"
fill="#000000" stroke="none">
<path d="M0 1520 l0 -1520 1520 0 1520 0 0 1520 0 1520 -1520 0 -1520 0 0
-1520z m1688 1010 c112 -14 239 -53 347 -105 49 -24 96 -48 103 -53 11 -7 -4
-49 -69 -193 -45 -101 -83 -185 -84 -187 -2 -2 -27 12 -56 31 -180 115 -312
143 -417 91 -98 -48 -140 -128 -106 -199 34 -73 107 -109 354 -176 185 -51
255 -85 328 -163 175 -188 199 -454 66 -725 -84 -170 -208 -268 -401 -317
-292 -74 -582 -19 -839 157 -39 27 -80 59 -92 72 l-20 22 120 193 120 192 70
-66 c143 -134 210 -172 348 -193 178 -28 325 102 281 249 -14 47 -86 115 -162
151 -30 15 -112 43 -184 63 -334 94 -461 216 -496 478 -17 122 21 276 96 394
144 225 383 323 693 284z"/>
</g>
</svg>
